<svg width="253" height="38" viewBox="0 0 253 38" fill="none" xmlns="http://www.w3.org/2000/svg">
<rect y="0.5" width="253" height="37" rx="18.5" fill="#102648"/>
<path d="M15.9999 12.3333C12.3199 12.3333 9.33325 15.3199 9.33325 18.9999C9.33325 22.6799 12.3199 25.6666 15.9999 25.6666C19.6799 25.6666 22.6666 22.6799 22.6666 18.9999C22.6666 15.3199 19.6799 12.3333 15.9999 12.3333ZM15.9999 24.3333C13.0599 24.3333 10.6666 21.9399 10.6666 18.9999C10.6666 16.0599 13.0599 13.6666 15.9999 13.6666C18.9399 13.6666 21.3333 16.0599 21.3333 18.9999C21.3333 21.9399 18.9399 24.3333 15.9999 24.3333ZM15.3333 21.6666H16.6666V22.9999H15.3333V21.6666ZM16.4066 15.0266C15.0333 14.8266 13.8199 15.6733 13.4533 16.8866C13.3333 17.2733 13.6266 17.6666 14.0333 17.6666H14.1666C14.4399 17.6666 14.6599 17.4733 14.7533 17.2199C14.9666 16.6266 15.5999 16.2199 16.2866 16.3666C16.9199 16.4999 17.3866 17.1199 17.3333 17.7666C17.2666 18.6599 16.2533 18.8533 15.6999 19.6866C15.6999 19.6933 15.6933 19.6933 15.6933 19.6999C15.6866 19.7133 15.6799 19.7199 15.6733 19.7333C15.6133 19.8333 15.5533 19.9466 15.5066 20.0666C15.4999 20.0866 15.4866 20.0999 15.4799 20.1199C15.4733 20.1333 15.4733 20.1466 15.4666 20.1666C15.3866 20.3933 15.3333 20.6666 15.3333 20.9999H16.6666C16.6666 20.7199 16.7399 20.4866 16.8533 20.2866C16.8666 20.2666 16.8733 20.2466 16.8866 20.2266C16.9399 20.1333 17.0066 20.0466 17.0733 19.9666C17.0799 19.9599 17.0866 19.9466 17.0933 19.9399C17.1599 19.8599 17.2333 19.7866 17.3133 19.7133C17.9533 19.1066 18.8199 18.6133 18.6399 17.3399C18.4799 16.1799 17.5666 15.1999 16.4066 15.0266Z" fill="#708DB7"/>
<path d="M30.8096 23.5V16.917L33.5645 20.7314H34.0225L36.8047 16.9307V23.5H38.5068V14.2031H37.0234L33.7969 18.5371L30.5908 14.2031H29.1074V23.5H30.8096ZM41.125 25.8994C42.6836 25.8994 43.3945 25.4414 44.2217 23.3428L46.9629 16.4727L45.1992 16.4795L43.5723 20.7314L43.3877 21.4492L43.21 20.7246L41.5557 16.4727H39.8125L42.5059 23.1719L42.4238 23.4111C42.1299 24.1836 41.8496 24.5322 41.1113 24.5322H39.9424V25.8994H41.125ZM52.2334 15.3789C52.9033 15.3789 53.2793 14.9619 53.2793 14.4287C53.2793 13.916 52.9033 13.4854 52.2402 13.4854C51.5908 13.4854 51.2148 13.916 51.2148 14.4287C51.2148 14.9551 51.5977 15.3789 52.2334 15.3789ZM53.0742 23.5V16.4727H51.4199V23.5H53.0742ZM56.6699 23.5V19.9111C56.6699 18.5371 57.5586 17.7852 58.5293 17.7852C59.5273 17.7852 60.1562 18.3525 60.1562 19.7471V23.5H61.8105V19.7129C61.8105 17.5049 60.874 16.2607 58.9873 16.2607C57.9072 16.2607 56.9912 16.8008 56.5879 17.5664V16.4727H55.0156V23.5H56.6699ZM66.6436 23.5L69.46 16.4727H67.6895L66.0557 20.7246L65.8779 21.4561L65.6934 20.7178L64.0596 16.4727H62.3027L65.1055 23.5H66.6436ZM71.3057 15.3789C71.9756 15.3789 72.3516 14.9619 72.3516 14.4287C72.3516 13.916 71.9756 13.4854 71.3125 13.4854C70.6631 13.4854 70.2871 13.916 70.2871 14.4287C70.2871 14.9551 70.6699 15.3789 71.3057 15.3789ZM72.1465 23.5V16.4727H70.4922V23.5H72.1465ZM78.4082 23.5V22.126H77.3213C76.7949 22.126 76.3027 21.8867 76.3027 20.9023V17.8945H78.4082V16.4727H76.3027V14.4014L74.6484 14.415V16.4727H73.1924V17.8945H74.6484V20.8271C74.6484 23.1445 75.9199 23.5 76.9795 23.5H78.4082ZM86.2422 19.8633C86.2422 17.9287 84.8203 16.2607 82.7012 16.2607C80.5889 16.2607 79.0576 17.9355 79.0576 19.9863C79.0576 22.0371 80.5889 23.7119 82.7012 23.7119C84.4512 23.7119 85.7021 22.5566 86.0576 21.292H84.2529C84.0137 21.8867 83.501 22.2354 82.667 22.2354C81.6963 22.2354 80.8896 21.5723 80.7188 20.4238H86.208C86.2354 20.1641 86.2422 20.041 86.2422 19.8633ZM80.7871 19.1455C81.0674 18.1543 81.8604 17.7031 82.6943 17.7031C83.665 17.7031 84.4854 18.3594 84.5537 19.1455H80.7871ZM89.25 23.5V20.2324C89.25 18.7354 90.0225 17.8945 91.1572 17.8945H91.8203V16.4727H91.0684C90.1523 16.4727 89.5098 16.9717 89.1816 17.7441V16.4727H87.5957V23.5H89.25ZM93.8779 18.0859C94.4658 18.0859 94.8555 17.6758 94.8555 17.1699C94.8555 16.6777 94.4658 16.2607 93.8848 16.2607C93.2969 16.2607 92.9141 16.6777 92.9141 17.1699C92.9141 17.6689 93.3037 18.0859 93.8779 18.0859ZM93.8779 23.7324C94.4658 23.7324 94.8555 23.3223 94.8555 22.8164C94.8555 22.3242 94.4658 21.9072 93.8848 21.9072C93.2969 21.9072 92.9141 22.3242 92.9141 22.8164C92.9141 23.3223 93.3037 23.7324 93.8779 23.7324Z" fill="#708DB7"/>
<path d="M108.803 23.5L112.829 15.0781V14.2031H106.342V15.5908H110.812L106.998 23.5H108.803ZM117.033 23.7119C119.152 23.7119 120.499 22.4746 120.499 20.8271C120.499 19.542 119.699 18.6602 118.783 18.4141C119.46 18.2021 120.027 17.3545 120.027 16.5C120.027 14.9004 118.715 13.9912 117.04 13.9912C115.399 13.9912 114.025 14.9141 114.025 16.5137C114.025 17.3682 114.586 18.1748 115.27 18.4072C114.381 18.6738 113.561 19.542 113.561 20.8271C113.561 22.4746 114.894 23.7119 117.033 23.7119ZM117.026 17.792C116.227 17.792 115.673 17.2314 115.673 16.582C115.673 15.9258 116.247 15.3721 117.033 15.3721C117.799 15.3721 118.366 15.9258 118.366 16.582C118.366 17.2314 117.819 17.792 117.026 17.792ZM117.026 22.3242C116.035 22.3242 115.222 21.6611 115.222 20.7656C115.222 19.8428 116.035 19.1729 117.026 19.1729C118.024 19.1729 118.838 19.8428 118.838 20.7656C118.838 21.6611 118.024 22.3242 117.026 22.3242ZM124.71 23.7119C125.852 23.7119 126.781 23.1924 127.239 22.3174V23.5H128.812V16.4727H127.239V17.6621C126.788 16.7871 125.852 16.2607 124.703 16.2607C122.823 16.2607 121.401 17.9355 121.401 19.9863C121.401 22.0508 122.81 23.7119 124.71 23.7119ZM125.106 22.1807C123.992 22.1807 123.042 21.3535 123.042 19.9863C123.042 18.667 123.972 17.792 125.106 17.792C126.255 17.792 127.171 18.7627 127.171 19.9863C127.171 21.2305 126.262 22.1807 125.106 22.1807ZM133.289 23.7119C134.984 23.7119 136.242 22.96 136.242 21.415C136.242 19.9248 135.107 19.501 133.651 19.2822C132.441 19.0908 132.182 18.9199 132.182 18.3936C132.182 17.9697 132.496 17.6143 133.207 17.6143C133.973 17.6143 134.383 17.9834 134.417 18.5029L136.037 18.5166C136.037 17.1768 134.896 16.2607 133.2 16.2607C131.484 16.2607 130.555 17.1357 130.555 18.4277C130.555 19.8838 131.717 20.4238 133.07 20.6016C134.027 20.7451 134.554 20.916 134.554 21.5107C134.554 22.0439 134.157 22.3994 133.303 22.3994C132.359 22.3994 131.881 21.9141 131.854 21.2715L130.268 21.2646C130.268 22.502 131.225 23.7119 133.289 23.7119ZM140.508 23.7119C141.684 23.7119 142.524 23.0557 142.941 22.3174V23.5H144.514V13.875H142.866V16.8896L142.9 17.6211C142.531 16.958 141.677 16.2607 140.528 16.2607C138.478 16.2607 137.11 17.9355 137.11 19.9863C137.11 22.0508 138.512 23.7119 140.508 23.7119ZM140.809 22.1875C139.599 22.1875 138.737 21.2305 138.737 19.9863C138.737 18.708 139.64 17.792 140.809 17.792C141.971 17.792 142.88 18.7559 142.88 19.9863C142.88 21.2305 141.964 22.1875 140.809 22.1875ZM147.323 23.6709C147.911 23.6709 148.301 23.2676 148.301 22.7617C148.301 22.2695 147.911 21.8525 147.33 21.8525C146.742 21.8525 146.359 22.2695 146.359 22.7617C146.359 23.2607 146.749 23.6709 147.323 23.6709ZM151.028 23.6709C151.616 23.6709 152.006 23.2676 152.006 22.7617C152.006 22.2695 151.616 21.8525 151.035 21.8525C150.447 21.8525 150.064 22.2695 150.064 22.7617C150.064 23.2607 150.454 23.6709 151.028 23.6709ZM154.733 23.6709C155.321 23.6709 155.711 23.2676 155.711 22.7617C155.711 22.2695 155.321 21.8525 154.74 21.8525C154.152 21.8525 153.77 22.2695 153.77 22.7617C153.77 23.2607 154.159 23.6709 154.733 23.6709ZM160.469 23.7119C161.645 23.7119 162.485 23.0557 162.902 22.3174V23.5H164.475V13.875H162.827V16.8896L162.861 17.6211C162.492 16.958 161.638 16.2607 160.489 16.2607C158.438 16.2607 157.071 17.9355 157.071 19.9863C157.071 22.0508 158.473 23.7119 160.469 23.7119ZM160.77 22.1875C159.56 22.1875 158.698 21.2305 158.698 19.9863C158.698 18.708 159.601 17.792 160.77 17.792C161.932 17.792 162.841 18.7559 162.841 19.9863C162.841 21.2305 161.925 22.1875 160.77 22.1875ZM168.624 23.5V17.8877H170.463V16.4727H168.624V16.1992C168.624 15.6455 168.952 15.1602 169.567 15.1602H170.497V13.7861H169.15C167.564 13.7861 166.97 14.9961 166.97 16.0693V16.4727H165.568V17.8877H166.97V23.5H168.624ZM172.356 15.3789C173.026 15.3789 173.402 14.9619 173.402 14.4287C173.402 13.916 173.026 13.4854 172.363 13.4854C171.714 13.4854 171.338 13.916 171.338 14.4287C171.338 14.9551 171.721 15.3789 172.356 15.3789ZM173.197 23.5V16.4727H171.543V23.5H173.197ZM178.297 23.7119C180.156 23.7119 181.592 22.7275 181.592 20.2256V16.4727H179.944V20.1777C179.944 21.4629 179.397 22.1738 178.29 22.1738C177.189 22.1738 176.629 21.4766 176.629 20.1777V16.4727H174.988V20.2256C174.988 22.7275 176.417 23.7119 178.297 23.7119ZM186.281 23.7119C187.457 23.7119 188.298 23.0557 188.715 22.3174V23.5H190.287V13.875H188.64V16.8896L188.674 17.6211C188.305 16.958 187.45 16.2607 186.302 16.2607C184.251 16.2607 182.884 17.9355 182.884 19.9863C182.884 22.0508 184.285 23.7119 186.281 23.7119ZM186.582 22.1875C185.372 22.1875 184.511 21.2305 184.511 19.9863C184.511 18.708 185.413 17.792 186.582 17.792C187.744 17.792 188.653 18.7559 188.653 19.9863C188.653 21.2305 187.737 22.1875 186.582 22.1875Z" fill="white"/>
<path d="M202 19C202 13.4772 206.477 9 212 9H235C240.523 9 245 13.4772 245 19C245 24.5228 240.523 29 235 29H212C206.477 29 202 24.5228 202 19Z" fill="#FFDB1C"/>
<path d="M216.879 22V15.3545H215.6L214.208 15.8721L214.213 17.2197L215.331 16.8047V22H216.879ZM220.741 22.1611C222.719 22.1611 223.661 20.5693 223.661 18.6797C223.661 16.8828 222.86 15.1982 220.736 15.1982C218.827 15.1982 217.821 16.7656 217.821 18.7041C217.821 20.5693 218.734 22.1611 220.741 22.1611ZM220.741 20.7451C219.892 20.7451 219.369 19.9395 219.369 18.6895C219.369 17.4248 219.906 16.6143 220.731 16.6143C221.61 16.6143 222.113 17.4443 222.113 18.6797C222.113 19.9346 221.596 20.7451 220.741 20.7451ZM226.151 18.6064C227.182 18.6064 227.987 17.8691 227.987 16.917C227.987 15.9502 227.196 15.2275 226.156 15.2275C225.116 15.2275 224.32 15.9648 224.32 16.9219C224.32 17.8691 225.121 18.6064 226.151 18.6064ZM227.064 22.0098L231.156 15.3691H229.77L225.702 22.0098H227.064ZM226.161 17.5762C225.805 17.5762 225.575 17.293 225.575 16.917C225.575 16.5264 225.805 16.2432 226.156 16.2432C226.508 16.2432 226.737 16.5361 226.737 16.9268C226.737 17.2979 226.508 17.5762 226.161 17.5762ZM230.551 22.127C231.591 22.127 232.392 21.3945 232.392 20.4424C232.392 19.4756 231.596 18.7529 230.565 18.7529C229.525 18.7529 228.725 19.4902 228.725 20.4521C228.725 21.3945 229.525 22.127 230.551 22.127ZM230.565 21.1064C230.209 21.1064 229.979 20.8135 229.979 20.4424C229.979 20.0518 230.209 19.7686 230.561 19.7686C230.912 19.7686 231.146 20.0615 231.146 20.4521C231.146 20.8232 230.917 21.1064 230.565 21.1064Z" fill="#07162D"/>
</svg>
